<?xml version="1.0" encoding="utf-8"?>
<!-- Generator: Adobe Illustrator 19.1.0, SVG Export Plug-In . SVG Version: 6.00 Build 0)  -->
<svg version="1.1" id="Layer_1" xmlns="http://www.w3.org/2000/svg" xmlns:xlink="http://www.w3.org/1999/xlink" x="0px" y="0px"
	 viewBox="0 0 504 66.9" enable-background="new 0 0 504 66.9" xml:space="preserve">
<g>
	<path fill="#FFFFFF" d="M337,7c0,0,3.9,0.1,4.9,0.1c1,0,5.5-0.1,5.5-0.1v0.7c-2.4,0.3-3.2,1-1.8,4.3l8,19.1l7.7-20.8
		c0.3-1.3,0.4-2-1.9-2.7V7c0,0,3.7,0.1,5.1,0.1c1.8,0,3.9-0.1,3.9-0.1v0.7c-2.9,0-3.5,0.6-4.9,4.4l-10.7,25.7h-0.9
		c0,0-9.8-24-10.7-25.6C339.5,9,339.6,8,337,7.7V7L337,7z"/>
	<path fill="#FFFFFF" d="M3.5,12.6v12.6c0,10.4,0,10.4-3.5,11c0,0.9,0,0.9,0,0.9s3.4-0.2,6-0.2c2.6,0,5.9,0.2,5.9,0.2s0,0,0-0.9
		c-3.5-0.6-3.5-0.6-3.5-11V12.6c0-10.4,0-10.4,3.5-10.9c0-0.9,0-0.9,0-0.9S8.6,0.8,6,0.8c-2.6,0-6-0.1-6-0.1s0,0,0,0.9
		C3.5,2.2,3.5,2.2,3.5,12.6L3.5,12.6z"/>
	<path fill="#FFFFFF" d="M144.1,1.5c0,0-4.6-1.5-8.4-1.5c-7.1,0-12.5,5-12.5,10.3c0,11.9,18.5,8.6,18.5,17.9
		c0,7.4-9.9,10.2-16.2,5.2c-1.3-1-1.5-3.2-1.8-4.5c-1.1,0-1.1,0-1.1,0l0.4,6.8c0,0,4.9,2.1,9.9,2.1c8.9,0,13.3-6,13.3-11.4
		c0-12-18.6-8.7-18.5-17.8c0-6.6,7.9-8.3,13.7-5c1.4,0.7,2.1,4.4,2.1,4.4h1.1L144.1,1.5L144.1,1.5z"/>
	<path fill="#FFFFFF" d="M146.2,12.6l0.5-5.6c0,0,10.2,0.1,12.5,0.1c2.3,0,12.7-0.1,12.7-0.1l0.2,5.6c0,0,0.2,0-0.8,0
		c-0.8-3.4-1.8-4-6.6-4c-3.3,0-3.4,0-3.4,0v23.2c0,3.6,0.1,4.1,3.4,4.4c0,0.9,0,0.8,0,0.8s-3.3-0.1-5.5-0.1c-2.3,0-5.6,0.1-5.6,0.1
		s0,0,0-0.8c3.3-0.3,3.4-0.8,3.4-4.4V8.6h-3.4c-4.8,0-5.8,0.5-6.7,4C146,12.6,146.2,12.6,146.2,12.6L146.2,12.6z"/>
	<path fill="#FFFFFF" d="M222.8,6.8c0,0,6.2,0.1,9.2,0.1c3.1,0,8.6-0.1,9.3-0.1c0,1,0.5,4,0.6,4.9l-0.7,0.2
		c-1.1-2.8-2.1-4.1-11.6-3.4c0,0,0,12,0,12c8.8,0,10,0.2,10.2-3h0.8c-0.2,2.9-0.3,4.7-0.2,7.6h-0.8c-0.1-3.1-1.3-2.9-10-2.9V35
		c8.4,0.5,11.9,0.2,13.2-3.9l0.8,0.3c-0.4,1.5-1.5,5.5-1.5,5.5s-10.4-0.1-12.3-0.1c-3,0-7.1,0.1-7.1,0.1v-0.8
		c2.4-0.3,2.8-0.4,2.9-4.3V12c0-4.1-0.9-4.2-2.9-4.5V6.8L222.8,6.8z"/>
	<path fill="#FFFFFF" d="M256.9,0.5c0,0,3.6,0.1,6.1,0.1c2.5,0,6-0.1,6-0.1v0.9c-1.6,0.5-3.6,0.1-3.6,6.1v15.5
		c0,6.2,1.5,7.6,1.5,7.6s2.2,4.3,8.4,4.3c5.6,0,7.9-4.3,7.9-4.3s1.3-1.2,1.4-7.3c0,0.1,0-15.8,0-15.8c-0.1-5.5-0.6-5.5-4.5-6.2V0.5
		c0,0,2.2,0.1,5.7,0.1c2.7,0,4.9-0.1,4.9-0.1s0,1,0,0.9c-2.3,0.5-3.7,0.8-3.6,6v17.4c0,6-3.1,8.7-3.1,8.7s-3.4,4.1-10.7,4.1
		c-7.7,0-11-5.1-11-5.1s-2-2-2-9.3V7.7c0-5.5-0.7-5.8-3.3-6.2V0.5L256.9,0.5z"/>
	<path fill="#FFFFFF" d="M291.4,6.9c0,0,1.8,0.1,3.8,0.1c2,0,2.9-0.1,2.9-0.1l20.6,23.4V12c0-3.5-0.7-4-3.6-4.4V6.9
		c0,0,2.5,0.1,4.5,0.1c2,0,4.3-0.1,4.3-0.1v0.7c-2.4,0.8-3,0.9-3,4.3v25.6l-1.5-0.1l-21.5-24.4v18.7c0,2.8,0.4,4,3.4,4.5V37
		c0,0-2.4-0.1-4.5-0.1c-1.9,0-4.3,0.1-4.3,0.1v-0.7c2.9-0.5,3.4-1.7,3.4-4.5V12c0-3.3-2.2-3.8-4.4-4.4V6.9L291.4,6.9z"/>
	<path fill="#FFFFFF" d="M477.8,7c0,0,2.7,0.1,4.8,0.1c2.1,0,5-0.1,5-0.1v0.8c-1.9,0.5-3,0.6-1.7,2.7l6.4,10.4l6-10.3
		c0.7-1.5,1.1-2.4-1.8-2.9V7c0,0,2,0.1,4,0.1c1.7,0,3.5-0.1,3.5-0.1v0.7c-1.9,0.4-2,0.9-3.3,2.8l-7.8,12l0.1,9.3
		c0,4.1,1,3.9,3.5,4.5V37c0,0-3.1-0.1-5.4-0.1c-2.3,0-5.5,0.1-5.5,0.1v-0.7c2.8-0.5,3.1-0.3,3.2-4.4l0-9.3l-7.7-11.9
		c-1.8-2.4-1.7-2.4-3.4-2.8V7L477.8,7z"/>
	<path fill="#FFFFFF" d="M57.2,6.8c0,0,2.8,0,5.2,0c2.4,0,5.2,0,5.2,0s0,0,0,0.8c-2.2,0.2-3.1,1.1-2.6,2.8l8.6,20.7l7.4-20.7
		c0.5-2.1,0-2.6-3-2.8c0-0.9,0-0.8,0-0.8s2.3,0,4.2,0c1.9,0,4.5,0,4.5,0s0,0,0,0.8c-2.1,0.2-2.5,1.1-3.2,2.8l0,0L73.1,37.5H72
		l-7.2-17.2l-7.2,17.2h0h-0.8l-11-27.2c-0.8-1.8-1-2.1-3.6-2.8c0-0.9,0-0.8,0-0.8s2.8,0,5.1,0c2.4,0,5.3,0,5.3,0s0,0,0,0.8
		c-2.4,0.2-3.1,1.1-2.5,2.9l8.3,20.7L63.9,18l-3.1-7.6c-1-2.1-1.2-2.3-3.6-2.8C57.2,6.7,57.2,6.8,57.2,6.8L57.2,6.8z"/>
	<path fill="#FFFFFF" d="M194.8,12.6l0.5-5.6c0,0,10.2,0.1,12.5,0.1c2.3,0,12.7-0.1,12.7-0.1l0.2,5.6c0,0,0.2,0-0.8,0
		c-0.8-3.4-1.8-4-6.6-4c-3.3,0-3.4,0-3.4,0v23.2c0,3.6,0.1,4.1,3.4,4.4c0,0.9,0,0.8,0,0.8s-3.3-0.1-5.5-0.1c-2.3,0-5.6,0.1-5.6,0.1
		s0,0,0-0.8c3.3-0.3,3.4-0.8,3.4-4.4V8.6h-3.4c-4.8,0-5.8,0.5-6.7,4C194.6,12.6,194.8,12.6,194.8,12.6L194.8,12.6z"/>
	<path fill="#FFFFFF" d="M443,16.7v10.4c0,8.6,0,8.6-2.8,9.1c0,0.8,0,0.8,0,0.8s2.8-0.2,4.9-0.2c2.2,0,4.9,0.2,4.9,0.2s0,0,0-0.8
		c-2.9-0.5-2.9-0.5-2.9-9.1V16.7c0-8.6,0-8.6,2.9-9c0-0.8,0-0.8,0-0.8S447.3,7,445.1,7c-2.1,0-4.9-0.1-4.9-0.1s0,0,0,0.8
		C443.1,8.2,443,8.2,443,16.7L443,16.7z"/>
	<path fill="#FFFFFF" d="M329.9,16.7v10.4c0,8.6,0.1,8.6-2.8,9.1c0,0.8,0,0.8,0,0.8s2.8-0.2,4.9-0.2c2.2,0,4.9,0.2,4.9,0.2
		s0,0,0-0.8c-2.9-0.5-2.9-0.5-2.9-9.1V16.7c0-8.6,0-8.6,2.9-9c0-0.8,0-0.8,0-0.8S334.2,7,332.1,7c-2.1,0-4.9-0.1-4.9-0.1s0,0,0,0.8
		C330,8.2,329.9,8.2,329.9,16.7L329.9,16.7z"/>
	<path fill="#FFFFFF" d="M368.2,6.9c0,0,6.2,0.1,9.2,0.1c3.1,0,8.6-0.1,9.3-0.1c0,1,0.5,4,0.6,4.9l-0.7,0.2
		c-1.1-2.8-2.1-4.1-11.6-3.4c0,0,0,12,0,12c8.8,0,10,0.2,10.2-3h0.8c-0.2,2.9-0.3,4.7-0.2,7.6h-0.8c-0.1-3.1-1.3-2.9-10-2.9v12.9
		c8.4,0.5,11.9,0.2,13.2-3.9l0.8,0.3c-0.4,1.5-1.5,5.5-1.5,5.5S377.1,37,375.3,37c-3,0-7.1,0.1-7.1,0.1v-0.8
		c2.4-0.3,2.8-0.4,2.9-4.3V12.2c-0.1-4.1-0.6-4.4-2.9-4.5V6.9L368.2,6.9z"/>
	<path fill="#FFFFFF" d="M451.3,12.6l0.5-5.6c0,0,10.2,0.1,12.5,0.1c2.3,0,12.7-0.1,12.7-0.1l0.2,5.6c0,0,0.2,0-0.8,0
		c-0.8-3.4-1.8-4-6.6-4c-3.3,0-3.4,0-3.4,0v23.2c0,3.6,0.1,4.1,3.4,4.4c0,0.9,0,0.8,0,0.8s-3.3-0.1-5.5-0.1c-2.3,0-5.6,0.1-5.6,0.1
		s0,0,0-0.8c3.3-0.3,3.4-0.8,3.4-4.4V8.6h-3.4c-4.8,0-5.8,0.5-6.7,4C451.1,12.6,451.3,12.6,451.3,12.6L451.3,12.6z"/>
	<path fill="#FFFFFF" d="M435.1,7.6c0,0-3.8-1.2-6.9-1.2c-5.8,0-10.3,4.2-10.3,8.5c0,9.8,15.2,7.1,15.2,14.7c0,6.1-8.1,8.4-13.4,4.3
		c-1.1-0.8-1.2-2.6-1.5-3.7c-0.9,0-0.9,0-0.9,0l0.3,5.6c0,0,4,1.7,8.2,1.7c7.3,0,10.9-4.9,10.9-9.4c0-9.8-15.3-7.1-15.3-14.6
		c0.1-5.4,6.5-6.8,11.3-4.1c1.2,0.5,1.7,3.6,1.7,3.6h0.9L435.1,7.6L435.1,7.6z"/>
	<path fill="#FFFFFF" d="M83.2,53.9c0,0,2.6,0.1,3.9,0.1c1.3,0,3.6-0.1,3.9-0.1c0,0.4,0.2,1.7,0.2,2.1L91,56.1
		c-0.4-1.2-0.9-1.7-4.8-1.4c0,0,0,5,0,5c3.7,0,4.2,0.1,4.3-1.2h0.3c-0.1,1.2-0.1,2-0.1,3.2h-0.3c0-1.3-0.5-1.2-4.2-1.2v5.4
		c3.5,0.2,4.9,0.1,5.5-1.6l0.3,0.1c-0.1,0.6-0.6,2.3-0.6,2.3s-4.4,0-5.1,0c-1.2,0-3,0-3,0v-0.3c1-0.1,1.1-0.2,1.2-1.8v-8.3
		c0-1.7-0.4-1.7-1.2-1.9V53.9L83.2,53.9z"/>
	<path fill="#FFFFFF" d="M134.2,53.9c0,0,2.6,0.1,3.9,0.1c1.3,0,3.6-0.1,3.9-0.1c0,0.4,0.2,1.7,0.2,2.1l-0.3,0.1
		c-0.4-1.2-0.9-1.7-4.8-1.4c0,0,0,5,0,5c3.7,0,4.2,0.1,4.3-1.2h0.3c-0.1,1.2-0.1,2-0.1,3.2h-0.3c0-1.3-0.5-1.2-4.2-1.2v5.4
		c3.5,0.2,4.9,0.1,5.5-1.6l0.3,0.1c-0.1,0.6-0.6,2.3-0.6,2.3s-4.4,0-5.1,0c-1.2,0-3,0-3,0v-0.3c1-0.1,1.1-0.2,1.2-1.8v-8.3
		c0-1.7-0.4-1.7-1.2-1.9V53.9L134.2,53.9z"/>
	<path fill="#FFFFFF" d="M236,54c0,0,2.6,0,3.9,0c1.3,0,3.6,0,3.9,0c0,0.4,0.2,1.7,0.2,2.1l-0.3,0.1c-0.4-1.2-0.9-1.7-4.8-1.4
		c0,0,0,5,0,5c3.7,0,4.2,0.1,4.3-1.2h0.3c-0.1,1.2-0.1,2-0.1,3.2h-0.3c0-1.3-0.5-1.2-4.2-1.2v5.4c3.5,0.2,4.9,0.1,5.5-1.6l0.3,0.1
		c-0.1,0.6-0.6,2.3-0.6,2.3s-4.4,0-5.1,0c-1.2,0-3,0-3,0v-0.3c1-0.1,1.1-0.2,1.2-1.8v-8.3c0-1.7-0.4-1.7-1.2-1.9V54L236,54z"/>
	<path fill="#FFFFFF" d="M97.8,53.9c0,0,0.8,0.1,1.6,0.1c0.8,0,1.3-0.1,1.3-0.1l8.6,9.8V56c0-1.4-0.3-1.7-1.5-1.8v-0.3
		c0,0,1,0.1,1.8,0.1c0.9,0,1.8-0.1,1.8-0.1v0.3c-1,0.3-1.2,0.4-1.2,1.8v10.7l-0.6,0l-9-10.2v7.8c0,1.2,0.1,1.7,1.4,1.9v0.3
		c0,0-1,0-1.9,0c-0.8,0-1.8,0-1.8,0v-0.3c1.2-0.2,1.4-0.7,1.4-1.9V56c0-1.3-0.9-1.6-1.8-1.8V53.9L97.8,53.9z"/>
	<path fill="#FFFFFF" d="M172.6,53.9c0,0,0.8,0.1,1.6,0.1c0.8,0,1.2-0.1,1.2-0.1l8.6,9.8V56c0-1.4-0.3-1.7-1.5-1.8v-0.3
		c0,0,1,0.1,1.8,0.1c0.9,0,1.8-0.1,1.8-0.1v0.3c-1,0.3-1.2,0.4-1.2,1.8v10.7l-0.6,0l-9-10.2v7.8c0,1.2,0.1,1.7,1.4,1.9v0.3
		c0,0-1,0-1.9,0c-0.8,0-1.8,0-1.8,0v-0.3c1.2-0.2,1.4-0.7,1.4-1.9V56c0-1.3-0.9-1.6-1.8-1.8V53.9L172.6,53.9z"/>
	<path fill="#FFFFFF" d="M287.2,53.9c0,0,0.8,0.1,1.6,0.1c0.8,0,1.2-0.1,1.2-0.1l8.7,9.8V56c0-1.4-0.3-1.7-1.5-1.8v-0.3
		c0,0,1,0.1,1.8,0.1c0.9,0,1.8-0.1,1.8-0.1v0.3c-1,0.3-1.2,0.4-1.2,1.8v10.7l-0.6,0l-9-10.2v7.8c0,1.2,0.1,1.7,1.4,1.9v0.3
		c0,0-1,0-1.9,0c-0.8,0-1.8,0-1.8,0v-0.3c1.2-0.2,1.4-0.7,1.4-1.9V56c0-1.3-0.9-1.6-1.8-1.8V53.9L287.2,53.9z"/>
	<path fill="#FFFFFF" d="M378.6,54c0,0,1.1,0,2,0c0.9,0,2.1,0,2.1,0v0.3c-0.8,0.2-1.2,0.2-0.7,1.1l2.7,4.4l2.6-4.4
		c0.3-0.7,0.5-1-0.7-1.2V54c0,0,0.8,0,1.7,0c0.7,0,1.5,0,1.5,0v0.3c-0.8,0.2-0.8,0.4-1.4,1.2l-3.3,5.1l0,4c0,1.7,0.4,1.7,1.5,1.9
		v0.3c0,0-1.3,0-2.3,0c-0.9,0-2.3,0-2.3,0v-0.3c1.2-0.2,1.3-0.1,1.4-1.9v-4l-3.3-5c-0.8-1-0.7-1-1.4-1.2V54L378.6,54z"/>
	<g>
		<path fill="#FFFFFF" d="M218.6,56.2l0.2-2.3c0,0,4.3,0.1,5.2,0.1c0.9,0,5.3-0.1,5.3-0.1l0.1,2.3c0,0,0.1,0-0.3,0
			c-0.3-1.4-0.8-1.6-2.8-1.6c-1.4,0-1.4,0-1.4,0v9.7c0,1.5,0,1.7,1.4,1.8c0,0.4,0,0.3,0,0.3s-1.4,0-2.3,0c-1,0-2.4,0-2.4,0
			s0,0,0-0.3c1.4-0.1,1.4-0.3,1.4-1.8v-9.7h-1.4c-2,0-2.4,0.2-2.8,1.6C218.6,56.2,218.6,56.2,218.6,56.2L218.6,56.2z"/>
		<path fill="#FFFFFF" d="M47.8,54.2c0,0-1.6-0.5-2.9-0.5c-2.5,0-4.4,1.8-4.4,3.6c0,4.2,6.5,3,6.5,6.3c0,2.6-3.5,3.6-5.7,1.8
			c-0.5-0.3-0.5-1.1-0.6-1.5c-0.4,0-0.4,0-0.4,0l0.1,2.4c0,0,1.7,0.7,3.5,0.7c3.1,0,4.6-2.1,4.6-4c0-4.2-6.5-3-6.5-6.2
			c0-2.3,2.8-2.9,4.8-1.8c0.5,0.2,0.7,1.5,0.7,1.5h0.4L47.8,54.2L47.8,54.2z"/>
	</g>
	<path fill="#FFFFFF" d="M73.2,58v4.4c0,3.6,0,3.6-1.2,3.9c0,0.3,0,0.3,0,0.3s1.1-0.1,2.1-0.1c0.9,0,2,0.1,2,0.1s0,0,0-0.3
		c-1.2-0.2-1.2-0.2-1.2-3.9V58c0-3.7,0-3.7,1.2-3.8c0-0.3,0-0.3,0-0.3s-1.1,0-2,0c-0.9,0-2.1,0-2.1,0s0,0,0,0.3
		C73.2,54.4,73.2,54.4,73.2,58L73.2,58z"/>
	<path fill="#FFFFFF" d="M65.9,54.3c0,0-2.3-0.6-4.1-0.6c-3.7,0-7,2.7-7,6.7c0,4.2,3,6.6,7,6.6c2.2,0,3.7-0.6,3.7-0.6l0.7-2.1
		l-0.4-0.1c-0.4,1-0.6,1-1,1.4c-0.4,0.3-1.7,0.7-2.8,0.7c-1.2,0-5.3-0.7-5.3-6c0-4.8,3.3-5.9,5.2-5.9c1.4,0,2.4,0.3,2.8,0.7
		c0.4,0.3,0.7,0.7,0.9,1.6l0.4-0.1L65.9,54.3L65.9,54.3z"/>
	<path fill="#FFFFFF" d="M127.4,54.2c0,0-2.3-0.6-4.1-0.6c-3.7,0-7,2.7-7,6.7c0,4.2,3,6.6,7,6.6c2.2,0,3.7-0.6,3.7-0.6l0.7-2.1
		l-0.4-0.1c-0.4,1-0.6,1-1,1.4c-0.4,0.3-1.7,0.7-2.8,0.7c-1.2,0-5.3-0.7-5.3-6c0-4.8,3.3-5.9,5.2-5.9c1.4,0,2.4,0.3,2.8,0.7
		c0.4,0.3,0.7,0.7,0.9,1.6l0.4-0.1L127.4,54.2L127.4,54.2z"/>
	<path fill="#FFFFFF" d="M261.3,54.3c0,0-2.3-0.6-4.1-0.6c-3.7,0-7,2.7-7,6.7c0,4.2,3,6.6,7,6.6c2.2,0,3.7-0.6,3.7-0.6l0.7-2.1
		l-0.4-0.1c-0.4,1-0.6,1-1,1.4c-0.4,0.3-1.7,0.7-2.8,0.7c-1.2,0-5.3-0.7-5.3-6c0-4.8,3.3-5.9,5.2-5.9c1.4,0,2.4,0.3,2.8,0.7
		c0.4,0.3,0.7,0.7,0.9,1.6l0.4-0.1L261.3,54.3L261.3,54.3z"/>
	<path fill="#FFFFFF" d="M19,54c0,0,2.1,0,3.3,0c1.4,0,4.5,0,4.5,0l0.3,2.1l-0.2,0c-0.6-1.2-0.9-1.6-2.9-1.6c-0.4,0-1.4,0-1.9,0.1
		V60c0.2,0,1.1,0,1.6,0c2.4,0,2.5-0.1,2.7-1.3h0.3c0,0,0,1.3,0,1.8c0,0.8,0,1.5,0,1.5h-0.3c-0.2-1.2-0.3-1.3-2.7-1.3
		c-0.5,0-1.3,0-1.6,0v3.3c0,2.3,0,2.3,1.4,2.5v0.2c0,0-1.7,0-2.2,0c-0.5,0-2.2,0-2.2,0v-0.2c1.1-0.2,1.2-0.2,1.2-2.5v-7.2
		c0-2.3,0-2.2-1.2-2.4V54L19,54z"/>
	<path fill="#FFFFFF" d="M326.3,54v0.2c0.7,0.1,1.2,0.1,1.2,1.8v8.6c0,1.4-0.2,1.6-1.2,1.8v0.3c0,0,2.2-0.1,3.1-0.1
		c0.9,0,4.9,0.1,4.9,0.1c0.1-0.8,0.4-1.6,0.7-2.4l-0.4-0.1c-0.3,0.9-0.6,1.6-2.3,1.6h-3V56c0-1.7,0.5-1.7,1.3-1.8V54
		c0,0-1.5,0-2.2,0C327.6,54,326.3,54,326.3,54L326.3,54z"/>
	<path fill="#FFFFFF" d="M271.1,59.6h6.5v-3c0-2-0.1-2.3-1.1-2.4v-0.3c0,0,1,0,2.1,0c0.8,0,2,0,2,0v0.3c-1,0.1-1.1,0.3-1.1,2.4v7.2
		c0,1.9,0.1,2.3,1.1,2.4v0.3c0,0-1.3,0-1.9,0c-0.6,0-2.1,0-2.1,0v-0.3c1-0.1,1.1-0.4,1.1-2.4v-3.3h-6.5v3.3c0,1.9,0.1,2.3,1.1,2.4
		v0.3c0,0-1.5,0-2.2,0c-0.6,0-1.9,0-1.9,0v-0.3c1-0.1,1.1-0.4,1.1-2.4v-7.2c0-2-0.1-2.3-1.1-2.4v-0.3c0,0,1.1,0,2,0
		c1.1,0,2.1,0,2.1,0v0.3c-1,0.1-1.1,0.3-1.1,2.4V59.6L271.1,59.6z"/>
	<path fill="#FFFFFF" d="M371.1,54.5c0,0-1.6-0.7-3.9-0.7c-2.2,0-6.9,1.5-6.9,6.7c0,3.9,3.2,6.1,6.7,6.1c2.1,0,3.5-0.4,4.6-0.8v-3.9
		c0-0.7,0.3-1,0.9-1.1v-0.3c0,0-1.2,0.1-1.9,0.1c-0.6,0-2.1-0.1-2.1-0.1v0.3c0.5,0.1,1.4,0.1,1.4,1.1v3.4c-0.5,0.3-1.4,0.7-2.7,0.7
		c-2.4,0-5-1.6-5-5.5c0-5.6,3.8-6.1,4.8-6.1c1.3,0,3.7,0.6,3.7,2.4h0.4L371.1,54.5L371.1,54.5z"/>
	<path fill-rule="evenodd" clip-rule="evenodd" fill="#FFFFFF" d="M13.1,21.9c0-8.8,7.2-15.5,15.8-15.5c8.5,0,15.8,6.7,15.8,15.5
		c0,8.9-7.3,15.6-15.8,15.6C20.3,37.5,13.1,30.8,13.1,21.9L13.1,21.9z M39.8,21.9c0-9.7-5.2-14-10.9-14c-5.7,0-11,4.3-11,14
		c0,9.8,5.2,14.1,11,14.1C34.6,36,39.8,31.8,39.8,21.9L39.8,21.9z"/>
	<path fill-rule="evenodd" clip-rule="evenodd" fill="#FFFFFF" d="M0,60.3c0-3.8,3.1-6.6,6.7-6.6c3.6,0,6.7,2.8,6.7,6.6
		c0,3.8-3.1,6.6-6.7,6.6C3.1,66.9,0,64.1,0,60.3L0,60.3z M11.3,60.3c0-4.2-2.2-5.9-4.6-5.9S2,56.2,2,60.3c0,4.2,2.2,5.9,4.6,5.9
		S11.3,64.5,11.3,60.3L11.3,60.3z"/>
	<path fill-rule="evenodd" clip-rule="evenodd" fill="#FFFFFF" d="M89.4,6.8c0,0,1.9,0,3.8,0c1.9,0,3.6,0,3.6,0l10.2,26.8
		c0.9,2.2,2.2,2.5,3.6,2.8c0,0.9,0,0.8,0,0.8l0,0c0,0-2.8-0.1-5.2-0.1c-2.4,0-5.3,0.1-5.3,0.1s0,0.1,0-0.8c1.9-0.3,3.1-0.3,2.2-2.8
		l-3.2-8.9h-9.9l-3.5,8.9c-0.9,2.4,1,2.5,2.6,2.8c0,0.9,0,0.8,0,0.8s-2.1-0.1-4-0.1c-1.9,0-4.1,0.1-4.1,0.1s0,0.2,0-0.7
		c1.7-0.6,1.9-0.6,2.9-2.8l9.9-23.1c0.8-2.2-1.2-2.3-3.5-2.9C89.4,6.6,89.4,6.8,89.4,6.8L89.4,6.8z M98.4,22.4l-4-11.1l-4.4,11.1
		H98.4L98.4,22.4z"/>
	<path fill-rule="evenodd" clip-rule="evenodd" fill="#FFFFFF" d="M159.2,53.9c0,0,0.8,0,1.6,0c0.8,0,1.5,0,1.5,0l4.3,11.1
		c0.4,0.9,0.9,1,1.5,1.2c0,0.4,0,0.3,0,0.3l0,0c0,0-1.2-0.1-2.2-0.1s-2.2,0.1-2.2,0.1s0,0,0-0.3c0.8-0.1,1.3-0.1,0.9-1.2l-1.3-3.7
		h-4.1l-1.5,3.7c-0.4,1,0.4,1,1.1,1.2c0,0.4,0,0.3,0,0.3s-0.9-0.1-1.7-0.1c-0.8,0-1.7,0.1-1.7,0.1s0,0.1,0-0.3
		c0.7-0.3,0.8-0.3,1.2-1.2l4.1-9.6c0.3-0.9-0.5-1-1.5-1.2C159.2,53.8,159.2,53.9,159.2,53.9L159.2,53.9z M163,60.4l-1.6-4.6
		l-1.8,4.6H163L163,60.4z"/>
	<path fill-rule="evenodd" clip-rule="evenodd" fill="#FFFFFF" d="M177.5,6.9c0,0,1.9,0,3.8,0c1.9,0,3.6,0,3.6,0l10.2,26.8
		c0.9,2.2,2.2,2.5,3.6,2.8c0,0.9,0,0.8,0,0.8l0,0c0,0-2.8-0.1-5.2-0.1s-5.3,0.1-5.3,0.1s0,0.1,0-0.8c1.9-0.3,3.1-0.3,2.2-2.8
		l-3.2-8.9h-9.9l-3.5,8.9c-0.9,2.4,1,2.5,2.6,2.8c0,0.9,0,0.8,0,0.8s-2.1-0.1-4-0.1c-1.9,0-4.1,0.1-4.1,0.1s0,0.2,0-0.7
		c1.7-0.6,1.9-0.6,2.9-2.8l9.9-23.1c0.8-2.2-1.2-2.3-3.5-2.9C177.5,6.8,177.5,6.9,177.5,6.9L177.5,6.9z M186.5,22.6l-4-11.1
		l-4.4,11.1H186.5L186.5,22.6z"/>
	<path fill-rule="evenodd" clip-rule="evenodd" fill="#FFFFFF" d="M193.3,53.9v0.3c1.1,0.1,1.1,0.3,1.2,2.4v7.2c0,2.2,0,2.3-1.2,2.4
		v0.3c0,0,1,0,1.6,0c0.6,0,2.2,0.1,3.5,0.1c5.6,0,7.4-3.5,7.4-6.4c0-2.8-2-6.4-6.7-6.4c-0.8,0-2.4,0.2-4.2,0.2
		C194.3,54,193.3,53.9,193.3,53.9L193.3,53.9z M196.2,54.8c0.6-0.2,1.6-0.3,2.2-0.3c1.9,0,5.3,0.8,5.3,5.8c0,4.8-2.6,5.6-5,5.6
		c-0.9,0-1.8-0.1-2.5-0.3V54.8L196.2,54.8z"/>
	<path fill-rule="evenodd" clip-rule="evenodd" fill="#FFFFFF" d="M306.5,60.3c0-3.8,3.1-6.6,6.7-6.6c3.6,0,6.7,2.8,6.7,6.6
		c0,3.8-3.1,6.6-6.7,6.6C309.6,66.9,306.5,64.1,306.5,60.3L306.5,60.3z M317.8,60.3c0-4.2-2.2-5.9-4.6-5.9c-2.4,0-4.7,1.8-4.7,5.9
		s2.2,5.9,4.7,5.9C315.6,66.2,317.8,64.5,317.8,60.3L317.8,60.3z"/>
	<path fill-rule="evenodd" clip-rule="evenodd" fill="#FFFFFF" d="M340.5,60.3c0-3.8,3.1-6.6,6.7-6.6c3.6,0,6.7,2.8,6.7,6.6
		c0,3.8-3.1,6.6-6.7,6.6C343.6,66.9,340.5,64.1,340.5,60.3L340.5,60.3z M351.8,60.3c0-4.2-2.2-5.9-4.6-5.9c-2.4,0-4.6,1.8-4.6,5.9
		s2.2,5.9,4.6,5.9C349.6,66.2,351.8,64.5,351.8,60.3L351.8,60.3z"/>
	<path fill-rule="evenodd" clip-rule="evenodd" fill="#FFFFFF" d="M390.5,7.1c0,0,2.6,0.1,3.8,0.1c1.4,0,4.4-0.3,6.6-0.3
		c5,0,10.9,2,10.9,7.9c0,5.6-5,6.3-6.9,7.1c2.1,1.7,5.4,6.9,6.7,8.9c3.1,4.9,3.1,5.2,5.8,5.6v0.7c0,0-1.8-0.1-2.8-0.1
		c-0.9,0-2.7,0-3.4,0c-2-2.3-4.1-6.1-5.7-8.5c-2.4-3.7-4.6-6.2-7.9-5.9c0,0,0,9.2,0,9.1c0.2,4.2,0.6,4.3,2.9,4.7v0.6
		c0,0-2.3,0-5.1,0c-1.6,0-4.9,0.1-4.9,0.1v-0.7c2.1-0.2,2.9-0.9,2.9-4.7V12c0-3.3-0.9-4-2.9-4.2V7.1L390.5,7.1z M397.6,9.1
		c3.2-1.3,9.5-0.9,9.7,5.8c0.1,6.8-6.9,7.1-9.7,6.4V9.1L397.6,9.1z"/>
</g>
</svg>
